# xmcd CD database file
#
# Track frame offsets:
#	150
#	23607
#	38810
#
# Disc length: 641 seconds
#
# Revision: 0
# Processed by: cddbd v1.5.1PL2 Copyright (c) Steve Scherf et al.
# Submitted via: CDex 1.51
#
DISCID=17027f03
DTITLE=MO'SOME TONEBENDER - ペチカ
DYEAR=2005
DGENRE=Rock
TTITLE0=ペチカ
TTITLE1=Good trip? Bad trip?
TTITLE2=ダミアン
EXTD=YEAR: 2005.10/19
EXTT0=
EXTT1=
EXTT2=
PLAYORDER=
